<svg width="221" height="59" viewBox="0 0 221 59" fill="none" xmlns="http://www.w3.org/2000/svg">
<path d="M32.6309 0.0415039C43.3101 0.0415039 51.9676 8.69825 51.9678 19.3774V32.6714C51.9678 41.9079 45.4912 49.6298 36.832 51.5483C36.8304 53.2433 36.1857 54.9377 34.8955 56.2329L32.4824 58.6548L25.8604 52.0083H19.3369L18.8379 52.0015C8.38928 51.7367 0 43.1838 0 32.6714V19.3774C0.000184541 8.86517 8.38939 0.312162 18.8379 0.0473633L19.3369 0.0415039H32.6309ZM19.3369 0.64502C8.99151 0.645141 0.60468 9.03206 0.604492 19.3774V32.6714C0.604492 43.0169 8.9914 51.4037 19.3369 51.4038H25.2578L11.54 37.6353C3.53204 29.5974 3.57343 16.5549 11.6016 8.5542C19.5839 0.599485 32.4919 0.610466 40.4463 8.60986C48.4002 16.6091 48.4002 29.5628 40.4463 37.562L36.2236 41.8071L29.1191 34.7114L33.3525 30.4556C37.4014 26.3835 37.4012 19.7895 33.3525 15.7173C29.3095 11.6513 22.734 11.6375 18.6641 15.6929C14.5654 19.7774 14.5513 26.4311 18.627 30.522L25.9639 37.8853L25.9746 37.8745L33.0791 44.9702L33.0508 44.9995L34.8955 46.8501C36.0336 47.9925 36.6691 49.446 36.8047 50.936C45.1412 49.039 51.3633 41.5823 51.3633 32.6714V19.3774C51.3631 9.19356 43.2364 0.90722 33.1143 0.650879L32.6309 0.64502H19.3369Z" fill="#37CF2A"/>
<path d="M65.0878 24.8481V5.64814H71.6638C72.8798 5.64814 73.9358 5.88014 74.8318 6.34414C75.7278 6.80814 76.4238 7.46414 76.9198 8.31214C77.4158 9.14414 77.6638 10.1361 77.6638 11.2881C77.6638 12.4401 77.4158 13.4401 76.9198 14.2881C76.4238 15.1201 75.7278 15.7681 74.8318 16.2321C73.9358 16.6801 72.8798 16.9041 71.6638 16.9041H67.8238V24.8481H65.0878ZM67.8238 14.4561H71.7598C72.7358 14.4561 73.5038 14.1761 74.0638 13.6161C74.6398 13.0561 74.9278 12.2961 74.9278 11.3361C74.9278 10.3761 74.6398 9.61614 74.0638 9.05614C73.5038 8.49614 72.7358 8.21614 71.7598 8.21614H67.8238V14.4561ZM83.0685 16.1841H91.7325L90.8445 17.4321C90.8445 15.8161 90.5565 14.5841 89.9805 13.7361C89.4045 12.8881 88.5645 12.4641 87.4605 12.4641C86.2605 12.4641 85.3245 12.9121 84.6525 13.8081C83.9805 14.6881 83.6445 15.9281 83.6445 17.5281C83.6445 19.2401 83.9805 20.5521 84.6525 21.4641C85.3245 22.3761 86.2845 22.8321 87.5325 22.8321C88.3485 22.8321 89.0605 22.6321 89.6685 22.2321C90.2765 21.8161 90.7885 21.2161 91.2045 20.4321H93.6765C93.4365 21.4241 93.0285 22.2801 92.4525 23.0001C91.8925 23.7201 91.1885 24.2721 90.3405 24.6561C89.5085 25.0401 88.5725 25.2321 87.5325 25.2321C86.1885 25.2321 85.0285 24.9281 84.0525 24.3201C83.0925 23.7121 82.3565 22.8321 81.8445 21.6801C81.3325 20.5281 81.0765 19.1441 81.0765 17.5281C81.0765 15.9921 81.3325 14.6721 81.8445 13.5681C82.3725 12.4481 83.1165 11.5841 84.0765 10.9761C85.0365 10.3681 86.1645 10.0641 87.4605 10.0641C88.6925 10.0641 89.7405 10.3521 90.6045 10.9281C91.4685 11.5041 92.1325 12.3441 92.5965 13.4481C93.0605 14.5361 93.2925 15.8561 93.2925 17.4081C93.2925 17.5841 93.2845 17.7681 93.2685 17.9601C93.2685 18.1521 93.2605 18.3361 93.2445 18.5121H83.0685V16.1841ZM103.329 6.70414V10.4481H109.809V12.9201H103.329V20.1201C103.329 20.9681 103.505 21.6241 103.857 22.0881C104.209 22.5361 104.721 22.7601 105.393 22.7601C106.097 22.7601 106.641 22.5201 107.025 22.0401C107.425 21.5441 107.721 20.8001 107.913 19.8081H110.241C110.161 21.5681 109.697 22.9121 108.849 23.8401C108.001 24.7681 106.817 25.2321 105.297 25.2321C103.825 25.2321 102.689 24.7921 101.889 23.9121C101.089 23.0321 100.689 21.8001 100.689 20.2161V12.9201H97.5211V10.4481H100.689V6.70414H103.329ZM116.702 24.8481V5.64814H119.438V22.2801H127.574V24.8481H116.702ZM137.587 25.2321C136.259 25.2321 135.107 24.9281 134.131 24.3201C133.155 23.6961 132.395 22.8161 131.851 21.6801C131.323 20.5441 131.059 19.2001 131.059 17.6481C131.059 16.0961 131.323 14.7521 131.851 13.6161C132.395 12.4801 133.155 11.6081 134.131 11.0001C135.107 10.3761 136.259 10.0641 137.587 10.0641C138.931 10.0641 140.083 10.3761 141.043 11.0001C142.019 11.6081 142.771 12.4801 143.299 13.6161C143.843 14.7521 144.115 16.0961 144.115 17.6481C144.115 19.2001 143.843 20.5441 143.299 21.6801C142.771 22.8161 142.019 23.6961 141.043 24.3201C140.083 24.9281 138.931 25.2321 137.587 25.2321ZM137.587 22.7601C138.819 22.7601 139.779 22.3121 140.467 21.4161C141.155 20.5201 141.499 19.2641 141.499 17.6481C141.499 16.0321 141.155 14.7761 140.467 13.8801C139.779 12.9841 138.819 12.5361 137.587 12.5361C136.355 12.5361 135.395 12.9841 134.707 13.8801C134.019 14.7761 133.675 16.0321 133.675 17.6481C133.675 19.2641 134.019 20.5201 134.707 21.4161C135.395 22.3121 136.355 22.7601 137.587 22.7601ZM154.727 25.2321C153.415 25.2321 152.279 24.9281 151.319 24.3201C150.359 23.7121 149.615 22.8481 149.087 21.7281C148.559 20.5921 148.295 19.2561 148.295 17.7201C148.295 16.1521 148.567 14.8001 149.111 13.6641C149.655 12.5121 150.423 11.6241 151.415 11.0001C152.423 10.3761 153.607 10.0641 154.967 10.0641C156.151 10.0641 157.191 10.3121 158.087 10.8081C158.983 11.2881 159.687 11.9761 160.199 12.8721C160.711 13.7521 160.991 14.8001 161.039 16.0161H158.615C158.407 14.9121 157.975 14.0561 157.319 13.4481C156.679 12.8401 155.863 12.5361 154.871 12.5361C153.607 12.5361 152.631 12.9921 151.943 13.9041C151.255 14.8161 150.911 16.0881 150.911 17.7201C150.911 19.3041 151.247 20.5441 151.919 21.4401C152.591 22.3201 153.527 22.7601 154.727 22.7601C155.623 22.7601 156.375 22.4961 156.983 21.9681C157.607 21.4241 158.039 20.6721 158.279 19.7121H160.703C160.623 20.8321 160.319 21.8081 159.791 22.6401C159.263 23.4561 158.559 24.0961 157.679 24.5601C156.815 25.0081 155.831 25.2321 154.727 25.2321ZM174.46 15.8481V18.1761L170.14 18.8481C169.468 18.9601 168.964 19.1921 168.628 19.5441C168.308 19.8961 168.148 20.3601 168.148 20.9361C168.148 21.4801 168.348 21.9201 168.748 22.2561C169.164 22.5921 169.692 22.7601 170.332 22.7601C171.036 22.7601 171.676 22.5921 172.252 22.2561C172.844 21.9201 173.316 21.4721 173.668 20.9121C174.02 20.3361 174.196 19.7041 174.196 19.0161V15.4881C174.196 14.5601 173.916 13.8321 173.356 13.3041C172.796 12.7761 172.028 12.5121 171.052 12.5121C170.364 12.5121 169.748 12.6241 169.204 12.8481C168.66 13.0721 168.212 13.4001 167.86 13.8321C167.524 14.2641 167.292 14.7921 167.164 15.4161H164.644C164.724 14.3121 165.036 13.3601 165.58 12.5601C166.14 11.7601 166.892 11.1441 167.836 10.7121C168.78 10.2801 169.876 10.0641 171.124 10.0641C172.916 10.0641 174.3 10.5201 175.276 11.4321C176.268 12.3441 176.764 13.6401 176.764 15.3201V24.8481H174.196V23.5281H173.476C173.092 24.0721 172.588 24.4881 171.964 24.7761C171.356 25.0641 170.604 25.2081 169.708 25.2081C168.828 25.2081 168.06 25.0401 167.404 24.7041C166.764 24.3521 166.26 23.8641 165.892 23.2401C165.54 22.6161 165.364 21.8881 165.364 21.0561C165.364 19.8561 165.748 18.8721 166.516 18.1041C167.284 17.3201 168.38 16.8161 169.804 16.5921L174.46 15.8481ZM187.353 6.70414V10.4481H193.833V12.9201H187.353V20.1201C187.353 20.9681 187.529 21.6241 187.881 22.0881C188.233 22.5361 188.745 22.7601 189.417 22.7601C190.121 22.7601 190.665 22.5201 191.049 22.0401C191.449 21.5441 191.745 20.8001 191.937 19.8081H194.265C194.185 21.5681 193.721 22.9121 192.873 23.8401C192.025 24.7681 190.841 25.2321 189.321 25.2321C187.849 25.2321 186.713 24.7921 185.913 23.9121C185.113 23.0321 184.713 21.8001 184.713 20.2161V12.9201H181.545V10.4481H184.713V6.70414H187.353ZM200.701 16.1841H209.365L208.477 17.4321C208.477 15.8161 208.189 14.5841 207.613 13.7361C207.037 12.8881 206.197 12.4641 205.093 12.4641C203.893 12.4641 202.957 12.9121 202.285 13.8081C201.613 14.6881 201.277 15.9281 201.277 17.5281C201.277 19.2401 201.613 20.5521 202.285 21.4641C202.957 22.3761 203.917 22.8321 205.165 22.8321C205.981 22.8321 206.693 22.6321 207.301 22.2321C207.909 21.8161 208.421 21.2161 208.837 20.4321H211.309C211.069 21.4241 210.661 22.2801 210.085 23.0001C209.525 23.7201 208.821 24.2721 207.973 24.6561C207.141 25.0401 206.205 25.2321 205.165 25.2321C203.821 25.2321 202.661 24.9281 201.685 24.3201C200.725 23.7121 199.989 22.8321 199.477 21.6801C198.965 20.5281 198.709 19.1441 198.709 17.5281C198.709 15.9921 198.965 14.6721 199.477 13.5681C200.005 12.4481 200.749 11.5841 201.709 10.9761C202.669 10.3681 203.797 10.0641 205.093 10.0641C206.325 10.0641 207.373 10.3521 208.237 10.9281C209.101 11.5041 209.765 12.3441 210.229 13.4481C210.693 14.5361 210.925 15.8561 210.925 17.4081C210.925 17.5841 210.917 17.7681 210.901 17.9601C210.901 18.1521 210.893 18.3361 210.877 18.5121H200.701V16.1841Z" fill="#1D1D1D"/>
<path d="M66.3478 42.0161C65.2838 42.0161 64.4838 41.6041 63.9478 40.7801C63.4118 39.9481 63.1438 38.7041 63.1438 37.0481C63.1438 35.3921 63.4198 34.1521 63.9718 33.3281C64.5238 32.4961 65.3518 32.0801 66.4558 32.0801C67.0558 32.0801 67.5678 32.2121 67.9918 32.4761C68.4158 32.7401 68.7518 33.1281 68.9998 33.6401C69.2558 34.1521 69.4118 34.7841 69.4678 35.5361H68.6638C68.5678 34.6561 68.3358 33.9921 67.9678 33.5441C67.5998 33.0961 67.0958 32.8721 66.4558 32.8721C65.6318 32.8721 65.0158 33.2161 64.6078 33.9041C64.1998 34.5921 63.9958 35.6401 63.9958 37.0481C63.9958 38.4561 64.1878 39.5041 64.5718 40.1921C64.9638 40.8801 65.5558 41.2241 66.3478 41.2241C66.9638 41.2241 67.4518 41.0201 67.8118 40.6121C68.1718 40.1961 68.3998 39.5801 68.4958 38.7641H69.2998C69.2358 39.4681 69.0798 40.0641 68.8318 40.5521C68.5918 41.0321 68.2598 41.3961 67.8358 41.6441C67.4198 41.8921 66.9238 42.0161 66.3478 42.0161ZM72.3021 37.8161H76.9461L76.6701 38.0801C76.6701 37.1841 76.4981 36.5001 76.1541 36.0281C75.8181 35.5481 75.3261 35.3081 74.6781 35.3081C73.9981 35.3081 73.4701 35.5641 73.0941 36.0761C72.7181 36.5881 72.5301 37.3041 72.5301 38.2241C72.5301 39.2161 72.7181 39.9721 73.0941 40.4921C73.4781 41.0121 74.0301 41.2721 74.7501 41.2721C75.2541 41.2721 75.6821 41.1321 76.0341 40.8521C76.3941 40.5721 76.6621 40.1681 76.8381 39.6401H77.6061C77.4861 40.1441 77.2941 40.5721 77.0301 40.9241C76.7661 41.2761 76.4421 41.5481 76.0581 41.7401C75.6741 41.9241 75.2381 42.0161 74.7501 42.0161C74.1021 42.0161 73.5501 41.8681 73.0941 41.5721C72.6461 41.2761 72.3021 40.8481 72.0621 40.2881C71.8301 39.7281 71.7141 39.0401 71.7141 38.2241C71.7141 37.4641 71.8341 36.8121 72.0741 36.2681C72.3141 35.7161 72.6541 35.2961 73.0941 35.0081C73.5421 34.7201 74.0701 34.5761 74.6781 34.5761C75.2701 34.5761 75.7701 34.7121 76.1781 34.9841C76.5861 35.2481 76.8941 35.6401 77.1021 36.1601C77.3181 36.6801 77.4261 37.3161 77.4261 38.0681C77.4261 38.1481 77.4221 38.2281 77.4141 38.3081C77.4141 38.3881 77.4101 38.4641 77.4021 38.5361H72.3021V37.8161ZM80.2845 44.2481V34.7321H81.1005V35.5721H81.3885C81.5725 35.2601 81.8365 35.0161 82.1805 34.8401C82.5325 34.6641 82.9245 34.5761 83.3565 34.5761C83.9565 34.5761 84.4685 34.7241 84.8925 35.0201C85.3245 35.3161 85.6525 35.7441 85.8765 36.3041C86.1085 36.8561 86.2245 37.5201 86.2245 38.2961C86.2245 39.0721 86.1085 39.7361 85.8765 40.2881C85.6525 40.8401 85.3245 41.2681 84.8925 41.5721C84.4685 41.8681 83.9565 42.0161 83.3565 42.0161C82.9245 42.0161 82.5325 41.9281 82.1805 41.7521C81.8365 41.5681 81.5725 41.3201 81.3885 41.0081H81.1005V44.2481H80.2845ZM83.2365 41.2601C83.9245 41.2601 84.4565 41.0001 84.8325 40.4801C85.2165 39.9521 85.4085 39.2201 85.4085 38.2841C85.4085 37.3561 85.2165 36.6321 84.8325 36.1121C84.4565 35.5921 83.9245 35.3321 83.2365 35.3321C82.5485 35.3321 82.0125 35.5921 81.6285 36.1121C81.2445 36.6321 81.0525 37.3601 81.0525 38.2961C81.0525 39.2241 81.2445 39.9521 81.6285 40.4801C82.0125 41.0001 82.5485 41.2601 83.2365 41.2601ZM88.9988 41.8481V34.7321H91.7828C92.5188 34.7321 93.0868 34.9001 93.4868 35.2361C93.8868 35.5721 94.0868 36.0481 94.0868 36.6641C94.0868 37.0241 93.9948 37.3361 93.8108 37.6001C93.6268 37.8561 93.3748 38.0361 93.0548 38.1401V38.2721C93.4148 38.3921 93.6948 38.5961 93.8948 38.8841C94.0948 39.1721 94.1948 39.5161 94.1948 39.9161C94.1948 40.5241 93.9908 41.0001 93.5828 41.3441C93.1828 41.6801 92.6148 41.8481 91.8788 41.8481H88.9988ZM89.8148 41.1041H91.8788C92.3588 41.1041 92.7268 40.9961 92.9828 40.7801C93.2468 40.5641 93.3788 40.2601 93.3788 39.8681C93.3788 39.4681 93.2468 39.1601 92.9828 38.9441C92.7268 38.7281 92.3588 38.6201 91.8788 38.6201H89.8148V41.1041ZM89.8148 37.9241H91.7948C92.2668 37.9241 92.6348 37.8201 92.8988 37.6121C93.1628 37.3961 93.2948 37.0921 93.2948 36.7001C93.2948 36.3161 93.1628 36.0161 92.8988 35.8001C92.6348 35.5841 92.2668 35.4761 91.7948 35.4761H89.8148V37.9241ZM97.0531 41.8481V34.7321H97.8571V39.4001L97.8451 41.2721H97.9531L101.097 34.7321H102.501V41.8481H101.697V37.0961L101.709 35.3081H101.601L98.4571 41.8481H97.0531ZM108.311 42.0161C107.671 42.0161 107.127 41.8721 106.679 41.5841C106.231 41.2881 105.887 40.8641 105.647 40.3121C105.407 39.7601 105.287 39.0961 105.287 38.3201C105.287 37.5281 105.407 36.8561 105.647 36.3041C105.895 35.7441 106.251 35.3161 106.715 35.0201C107.187 34.7241 107.751 34.5761 108.407 34.5761C108.959 34.5761 109.439 34.6921 109.847 34.9241C110.255 35.1481 110.579 35.4721 110.819 35.8961C111.059 36.3201 111.199 36.8321 111.239 37.4321H110.471C110.391 36.7601 110.167 36.2441 109.799 35.8841C109.439 35.5161 108.967 35.3321 108.383 35.3321C107.655 35.3321 107.091 35.5921 106.691 36.1121C106.299 36.6241 106.103 37.3601 106.103 38.3201C106.103 39.2641 106.291 39.9921 106.667 40.5041C107.051 41.0081 107.599 41.2601 108.311 41.2601C108.855 41.2601 109.299 41.0961 109.643 40.7681C109.995 40.4401 110.223 39.9721 110.327 39.3641H111.095C111.039 39.9161 110.887 40.3921 110.639 40.7921C110.399 41.1841 110.079 41.4881 109.679 41.7041C109.287 41.9121 108.831 42.0161 108.311 42.0161ZM122.44 41.8481V34.7321H127.528V41.8481H126.712V35.4881H123.256V41.8481H122.44ZM133.387 42.0161C132.755 42.0161 132.211 41.8681 131.755 41.5721C131.299 41.2681 130.947 40.8401 130.699 40.2881C130.459 39.7361 130.339 39.0721 130.339 38.2961C130.339 37.5201 130.459 36.8561 130.699 36.3041C130.947 35.7441 131.299 35.3161 131.755 35.0201C132.211 34.7241 132.755 34.5761 133.387 34.5761C134.019 34.5761 134.563 34.7241 135.019 35.0201C135.475 35.3161 135.823 35.7441 136.063 36.3041C136.311 36.8561 136.435 37.5201 136.435 38.2961C136.435 39.0721 136.311 39.7361 136.063 40.2881C135.823 40.8401 135.475 41.2681 135.019 41.5721C134.563 41.8681 134.019 42.0161 133.387 42.0161ZM133.387 41.2601C134.091 41.2601 134.639 41.0001 135.031 40.4801C135.423 39.9521 135.619 39.2241 135.619 38.2961C135.619 37.3601 135.423 36.6321 135.031 36.1121C134.639 35.5921 134.091 35.3321 133.387 35.3321C132.683 35.3321 132.135 35.5921 131.743 36.1121C131.351 36.6321 131.155 37.3601 131.155 38.2961C131.155 39.2241 131.351 39.9521 131.743 40.4801C132.135 41.0001 132.683 41.2601 133.387 41.2601ZM139.065 41.8481V34.7321H139.869V39.4001L139.857 41.2721H139.965L143.109 34.7321H144.513V41.8481H143.709V37.0961L143.721 35.3081H143.613L140.469 41.8481H139.065ZM150.323 42.0161C149.683 42.0161 149.139 41.8721 148.691 41.5841C148.243 41.2881 147.899 40.8641 147.659 40.3121C147.419 39.7601 147.299 39.0961 147.299 38.3201C147.299 37.5281 147.419 36.8561 147.659 36.3041C147.907 35.7441 148.263 35.3161 148.727 35.0201C149.199 34.7241 149.763 34.5761 150.419 34.5761C150.971 34.5761 151.451 34.6921 151.859 34.9241C152.267 35.1481 152.591 35.4721 152.831 35.8961C153.071 36.3201 153.211 36.8321 153.251 37.4321H152.483C152.403 36.7601 152.179 36.2441 151.811 35.8841C151.451 35.5161 150.979 35.3321 150.395 35.3321C149.667 35.3321 149.103 35.5921 148.703 36.1121C148.311 36.6241 148.115 37.3601 148.115 38.3201C148.115 39.2641 148.303 39.9921 148.679 40.5041C149.063 41.0081 149.611 41.2601 150.323 41.2601C150.867 41.2601 151.311 41.0961 151.655 40.7681C152.007 40.4401 152.235 39.9721 152.339 39.3641H153.107C153.051 39.9161 152.899 40.3921 152.651 40.7921C152.411 41.1841 152.091 41.4881 151.691 41.7041C151.299 41.9121 150.843 42.0161 150.323 42.0161ZM160.55 41.8481L157.046 38.3561L160.646 34.7321H161.702L158.126 38.3321L161.666 41.8481H160.55ZM156.482 41.8481V34.7321H157.298V41.8481H156.482ZM168.832 37.5761V38.3201L166.456 38.6801C166.008 38.7521 165.672 38.9041 165.448 39.1361C165.224 39.3681 165.112 39.6681 165.112 40.0361C165.112 40.4041 165.24 40.7001 165.496 40.9241C165.76 41.1481 166.112 41.2601 166.552 41.2601C166.968 41.2601 167.336 41.1681 167.656 40.9841C167.984 40.8001 168.24 40.5481 168.424 40.2281C168.608 39.9001 168.7 39.5241 168.7 39.1001V37.0961C168.7 36.5361 168.54 36.1001 168.22 35.7881C167.908 35.4761 167.464 35.3201 166.888 35.3201C166.488 35.3201 166.132 35.3961 165.82 35.5481C165.508 35.6921 165.256 35.9001 165.064 36.1721C164.88 36.4361 164.764 36.7561 164.716 37.1321H163.936C163.976 36.6041 164.124 36.1481 164.38 35.7641C164.644 35.3801 164.988 35.0881 165.412 34.8881C165.844 34.6801 166.34 34.5761 166.9 34.5761C167.732 34.5761 168.372 34.7881 168.82 35.2121C169.276 35.6361 169.504 36.2401 169.504 37.0241V41.8481H168.7V41.0921H168.412C168.22 41.3801 167.948 41.6041 167.596 41.7641C167.252 41.9241 166.852 42.0041 166.396 42.0041C165.956 42.0041 165.576 41.9241 165.256 41.7641C164.936 41.6041 164.688 41.3801 164.512 41.0921C164.344 40.7961 164.26 40.4521 164.26 40.0601C164.26 39.4921 164.436 39.0281 164.788 38.6681C165.14 38.3081 165.636 38.0761 166.276 37.9721L168.832 37.5761ZM63.6238 55.8481V48.7321H68.7118V55.8481H67.8958V49.4881H64.4398V55.8481H63.6238ZM71.8461 55.8481V48.7321H72.6501V53.4001L72.6381 55.2721H72.7461L75.8901 48.7321H77.2941V55.8481H76.4901V51.0961L76.5021 49.3081H76.3941L73.2501 55.8481H71.8461ZM82.5645 55.8481V49.4881H80.1765V48.7321H85.7685V49.4881H83.3805V55.8481H82.5645ZM91.3748 56.0161C90.7428 56.0161 90.1988 55.8681 89.7428 55.5721C89.2868 55.2681 88.9348 54.8401 88.6868 54.2881C88.4468 53.7361 88.3268 53.0721 88.3268 52.2961C88.3268 51.5201 88.4468 50.8561 88.6868 50.3041C88.9348 49.7441 89.2868 49.3161 89.7428 49.0201C90.1988 48.7241 90.7428 48.5761 91.3748 48.5761C92.0068 48.5761 92.5508 48.7241 93.0068 49.0201C93.4628 49.3161 93.8108 49.7441 94.0508 50.3041C94.2988 50.8561 94.4228 51.5201 94.4228 52.2961C94.4228 53.0721 94.2988 53.7361 94.0508 54.2881C93.8108 54.8401 93.4628 55.2681 93.0068 55.5721C92.5508 55.8681 92.0068 56.0161 91.3748 56.0161ZM91.3748 55.2601C92.0788 55.2601 92.6268 55.0001 93.0188 54.4801C93.4108 53.9521 93.6068 53.2241 93.6068 52.2961C93.6068 51.3601 93.4108 50.6321 93.0188 50.1121C92.6268 49.5921 92.0788 49.3321 91.3748 49.3321C90.6708 49.3321 90.1228 49.5921 89.7308 50.1121C89.3388 50.6321 89.1428 51.3601 89.1428 52.2961C89.1428 53.2241 89.3388 53.9521 89.7308 54.4801C90.1228 55.0001 90.6708 55.2601 91.3748 55.2601ZM96.7771 55.8481V48.7321H98.1931L99.7531 53.9881H99.8491L101.409 48.7321H102.777V55.8481H101.997V51.7801L102.021 49.3441H101.901L100.377 54.4681H99.1771L97.6531 49.3441H97.5331L97.5571 51.7801V55.8481H96.7771ZM110.795 57.6481V55.8481H105.575V48.7321H106.391V55.0921H109.859V48.7321H110.675V55.0921H111.551V57.6481H110.795ZM114.314 51.8161H118.958L118.682 52.0801C118.682 51.1841 118.51 50.5001 118.166 50.0281C117.83 49.5481 117.338 49.3081 116.69 49.3081C116.01 49.3081 115.482 49.5641 115.106 50.0761C114.73 50.5881 114.542 51.3041 114.542 52.2241C114.542 53.2161 114.73 53.9721 115.106 54.4921C115.49 55.0121 116.042 55.2721 116.762 55.2721C117.266 55.2721 117.694 55.1321 118.046 54.8521C118.406 54.5721 118.674 54.1681 118.85 53.6401H119.618C119.498 54.1441 119.306 54.5721 119.042 54.9241C118.778 55.2761 118.454 55.5481 118.07 55.7401C117.686 55.9241 117.25 56.0161 116.762 56.0161C116.114 56.0161 115.562 55.8681 115.106 55.5721C114.658 55.2761 114.314 54.8481 114.074 54.2881C113.842 53.7281 113.726 53.0401 113.726 52.2241C113.726 51.4641 113.846 50.8121 114.086 50.2681C114.326 49.7161 114.666 49.2961 115.106 49.0081C115.554 48.7201 116.082 48.5761 116.69 48.5761C117.282 48.5761 117.782 48.7121 118.19 48.9841C118.598 49.2481 118.906 49.6401 119.114 50.1601C119.33 50.6801 119.438 51.3161 119.438 52.0681C119.438 52.1481 119.434 52.2281 119.426 52.3081C119.426 52.3881 119.422 52.4641 119.414 52.5361H114.314V51.8161ZM122.608 55.8481V48.7321H125.392C126.128 48.7321 126.696 48.9001 127.096 49.2361C127.496 49.5721 127.696 50.0481 127.696 50.6641C127.696 51.0241 127.604 51.3361 127.42 51.6001C127.236 51.8561 126.984 52.0361 126.664 52.1401V52.2721C127.024 52.3921 127.304 52.5961 127.504 52.8841C127.704 53.1721 127.804 53.5161 127.804 53.9161C127.804 54.5241 127.6 55.0001 127.192 55.3441C126.792 55.6801 126.224 55.8481 125.488 55.8481H122.608ZM123.424 55.1041H125.488C125.968 55.1041 126.336 54.9961 126.592 54.7801C126.856 54.5641 126.988 54.2601 126.988 53.8681C126.988 53.4681 126.856 53.1601 126.592 52.9441C126.336 52.7281 125.968 52.6201 125.488 52.6201H123.424V55.1041ZM123.424 51.9241H125.404C125.876 51.9241 126.244 51.8201 126.508 51.6121C126.772 51.3961 126.904 51.0921 126.904 50.7001C126.904 50.3161 126.772 50.0161 126.508 49.8001C126.244 49.5841 125.876 49.4761 125.404 49.4761H123.424V51.9241Z" fill="#B4B4B4"/>
</svg>
