<svg width="221" height="61" viewBox="0 0 221 61" fill="none" xmlns="http://www.w3.org/2000/svg">
<path d="M12.8096 0.785156C12.8603 0.146509 13.5718 -0.209624 14.1133 0.132812C14.9575 0.993073 15.7157 1.69489 16.4678 2.29395C17.2437 2.17852 18.0347 2.10922 18.8379 2.08887L19.3369 2.08301H32.6309C35.9151 2.08301 39.008 2.90211 41.7168 4.34668C41.8408 4.3292 41.967 4.31177 42.0957 4.29492C42.4405 4.1501 42.7486 4.41955 42.6504 4.78027C42.6345 4.80309 42.6182 4.82594 42.6025 4.84863C48.2146 8.23297 51.9676 14.3876 51.9678 21.4189V34.7129C51.9678 43.9494 45.4912 51.6713 36.832 53.5898C36.8304 55.2848 36.1857 56.9792 34.8955 58.2744L32.4824 60.6963L25.8604 54.0498H19.3369L18.8379 54.043C8.38928 53.7782 0 45.2253 0 34.7129V21.4189C0.000141177 13.3769 4.9101 6.48144 11.8955 3.56641C12.1136 2.71997 12.4163 1.81301 12.8096 0.785156ZM11.7266 4.29785C5.17369 7.21501 0.604631 13.7833 0.604492 21.4189V34.7129C0.604492 45.0584 8.9914 53.4452 19.3369 53.4453H25.2578L11.54 39.6768C3.53204 31.6389 3.57343 18.5964 11.6016 10.5957C11.7158 10.4819 11.8311 10.3693 11.9473 10.2588C11.4118 7.95618 11.326 6.24769 11.7266 4.29785ZM42.2666 5.35156C41.117 7.1247 40.6153 8.58306 40.4727 10.6787C48.3998 18.68 48.3913 31.6133 40.4463 39.6035L36.2236 43.8486L29.1191 36.7529L33.3525 32.4971C37.4014 28.425 37.4012 21.831 33.3525 17.7588C29.3095 13.6928 22.734 13.679 18.6641 17.7344C14.5654 21.8189 14.5513 28.4726 18.627 32.5635L25.9639 39.9268L25.9746 39.916L33.0791 47.0117L33.0508 47.041L34.8955 48.8916C36.0336 50.034 36.6691 51.4875 36.8047 52.9775C45.1412 51.0805 51.3633 43.6238 51.3633 34.7129V21.4189C51.3632 14.5972 47.7168 8.62707 42.2666 5.35156ZM19.3369 2.68652C18.5993 2.68653 17.8717 2.73052 17.1562 2.81348C18.4587 3.74511 19.8174 4.41911 21.6484 5.10938C26.1848 4.12156 30.9907 4.69741 35.21 6.83789C36.8868 5.54697 38.3659 4.92238 40.6973 4.50781C38.391 3.40582 35.8242 2.76101 33.1143 2.69238L32.6309 2.68652H19.3369Z" fill="#37CF2A"/>
<path d="M65.0878 25.8481V6.64814H71.6638C72.8798 6.64814 73.9358 6.88014 74.8318 7.34414C75.7278 7.80814 76.4238 8.46414 76.9198 9.31214C77.4158 10.1441 77.6638 11.1361 77.6638 12.2881C77.6638 13.4401 77.4158 14.4401 76.9198 15.2881C76.4238 16.1201 75.7278 16.7681 74.8318 17.2321C73.9358 17.6801 72.8798 17.9041 71.6638 17.9041H67.8238V25.8481H65.0878ZM67.8238 15.4561H71.7598C72.7358 15.4561 73.5038 15.1761 74.0638 14.6161C74.6398 14.0561 74.9278 13.2961 74.9278 12.3361C74.9278 11.3761 74.6398 10.6161 74.0638 10.0561C73.5038 9.49614 72.7358 9.21614 71.7598 9.21614H67.8238V15.4561ZM83.0685 17.1841H91.7325L90.8445 18.4321C90.8445 16.8161 90.5565 15.5841 89.9805 14.7361C89.4045 13.8881 88.5645 13.4641 87.4605 13.4641C86.2605 13.4641 85.3245 13.9121 84.6525 14.8081C83.9805 15.6881 83.6445 16.9281 83.6445 18.5281C83.6445 20.2401 83.9805 21.5521 84.6525 22.4641C85.3245 23.3761 86.2845 23.8321 87.5325 23.8321C88.3485 23.8321 89.0605 23.6321 89.6685 23.2321C90.2765 22.8161 90.7885 22.2161 91.2045 21.4321H93.6765C93.4365 22.4241 93.0285 23.2801 92.4525 24.0001C91.8925 24.7201 91.1885 25.2721 90.3405 25.6561C89.5085 26.0401 88.5725 26.2321 87.5325 26.2321C86.1885 26.2321 85.0285 25.9281 84.0525 25.3201C83.0925 24.7121 82.3565 23.8321 81.8445 22.6801C81.3325 21.5281 81.0765 20.1441 81.0765 18.5281C81.0765 16.9921 81.3325 15.6721 81.8445 14.5681C82.3725 13.4481 83.1165 12.5841 84.0765 11.9761C85.0365 11.3681 86.1645 11.0641 87.4605 11.0641C88.6925 11.0641 89.7405 11.3521 90.6045 11.9281C91.4685 12.5041 92.1325 13.3441 92.5965 14.4481C93.0605 15.5361 93.2925 16.8561 93.2925 18.4081C93.2925 18.5841 93.2845 18.7681 93.2685 18.9601C93.2685 19.1521 93.2605 19.3361 93.2445 19.5121H83.0685V17.1841ZM103.329 7.70414V11.4481H109.809V13.9201H103.329V21.1201C103.329 21.9681 103.505 22.6241 103.857 23.0881C104.209 23.5361 104.721 23.7601 105.393 23.7601C106.097 23.7601 106.641 23.5201 107.025 23.0401C107.425 22.5441 107.721 21.8001 107.913 20.8081H110.241C110.161 22.5681 109.697 23.9121 108.849 24.8401C108.001 25.7681 106.817 26.2321 105.297 26.2321C103.825 26.2321 102.689 25.7921 101.889 24.9121C101.089 24.0321 100.689 22.8001 100.689 21.2161V13.9201H97.5211V11.4481H100.689V7.70414H103.329ZM116.702 25.8481V6.64814H119.438V23.2801H127.574V25.8481H116.702ZM137.587 26.2321C136.259 26.2321 135.107 25.9281 134.131 25.3201C133.155 24.6961 132.395 23.8161 131.851 22.6801C131.323 21.5441 131.059 20.2001 131.059 18.6481C131.059 17.0961 131.323 15.7521 131.851 14.6161C132.395 13.4801 133.155 12.6081 134.131 12.0001C135.107 11.3761 136.259 11.0641 137.587 11.0641C138.931 11.0641 140.083 11.3761 141.043 12.0001C142.019 12.6081 142.771 13.4801 143.299 14.6161C143.843 15.7521 144.115 17.0961 144.115 18.6481C144.115 20.2001 143.843 21.5441 143.299 22.6801C142.771 23.8161 142.019 24.6961 141.043 25.3201C140.083 25.9281 138.931 26.2321 137.587 26.2321ZM137.587 23.7601C138.819 23.7601 139.779 23.3121 140.467 22.4161C141.155 21.5201 141.499 20.2641 141.499 18.6481C141.499 17.0321 141.155 15.7761 140.467 14.8801C139.779 13.9841 138.819 13.5361 137.587 13.5361C136.355 13.5361 135.395 13.9841 134.707 14.8801C134.019 15.7761 133.675 17.0321 133.675 18.6481C133.675 20.2641 134.019 21.5201 134.707 22.4161C135.395 23.3121 136.355 23.7601 137.587 23.7601ZM154.727 26.2321C153.415 26.2321 152.279 25.9281 151.319 25.3201C150.359 24.7121 149.615 23.8481 149.087 22.7281C148.559 21.5921 148.295 20.2561 148.295 18.7201C148.295 17.1521 148.567 15.8001 149.111 14.6641C149.655 13.5121 150.423 12.6241 151.415 12.0001C152.423 11.3761 153.607 11.0641 154.967 11.0641C156.151 11.0641 157.191 11.3121 158.087 11.8081C158.983 12.2881 159.687 12.9761 160.199 13.8721C160.711 14.7521 160.991 15.8001 161.039 17.0161H158.615C158.407 15.9121 157.975 15.0561 157.319 14.4481C156.679 13.8401 155.863 13.5361 154.871 13.5361C153.607 13.5361 152.631 13.9921 151.943 14.9041C151.255 15.8161 150.911 17.0881 150.911 18.7201C150.911 20.3041 151.247 21.5441 151.919 22.4401C152.591 23.3201 153.527 23.7601 154.727 23.7601C155.623 23.7601 156.375 23.4961 156.983 22.9681C157.607 22.4241 158.039 21.6721 158.279 20.7121H160.703C160.623 21.8321 160.319 22.8081 159.791 23.6401C159.263 24.4561 158.559 25.0961 157.679 25.5601C156.815 26.0081 155.831 26.2321 154.727 26.2321ZM174.46 16.8481V19.1761L170.14 19.8481C169.468 19.9601 168.964 20.1921 168.628 20.5441C168.308 20.8961 168.148 21.3601 168.148 21.9361C168.148 22.4801 168.348 22.9201 168.748 23.2561C169.164 23.5921 169.692 23.7601 170.332 23.7601C171.036 23.7601 171.676 23.5921 172.252 23.2561C172.844 22.9201 173.316 22.4721 173.668 21.9121C174.02 21.3361 174.196 20.7041 174.196 20.0161V16.4881C174.196 15.5601 173.916 14.8321 173.356 14.3041C172.796 13.7761 172.028 13.5121 171.052 13.5121C170.364 13.5121 169.748 13.6241 169.204 13.8481C168.66 14.0721 168.212 14.4001 167.86 14.8321C167.524 15.2641 167.292 15.7921 167.164 16.4161H164.644C164.724 15.3121 165.036 14.3601 165.58 13.5601C166.14 12.7601 166.892 12.1441 167.836 11.7121C168.78 11.2801 169.876 11.0641 171.124 11.0641C172.916 11.0641 174.3 11.5201 175.276 12.4321C176.268 13.3441 176.764 14.6401 176.764 16.3201V25.8481H174.196V24.5281H173.476C173.092 25.0721 172.588 25.4881 171.964 25.7761C171.356 26.0641 170.604 26.2081 169.708 26.2081C168.828 26.2081 168.06 26.0401 167.404 25.7041C166.764 25.3521 166.26 24.8641 165.892 24.2401C165.54 23.6161 165.364 22.8881 165.364 22.0561C165.364 20.8561 165.748 19.8721 166.516 19.1041C167.284 18.3201 168.38 17.8161 169.804 17.5921L174.46 16.8481ZM187.353 7.70414V11.4481H193.833V13.9201H187.353V21.1201C187.353 21.9681 187.529 22.6241 187.881 23.0881C188.233 23.5361 188.745 23.7601 189.417 23.7601C190.121 23.7601 190.665 23.5201 191.049 23.0401C191.449 22.5441 191.745 21.8001 191.937 20.8081H194.265C194.185 22.5681 193.721 23.9121 192.873 24.8401C192.025 25.7681 190.841 26.2321 189.321 26.2321C187.849 26.2321 186.713 25.7921 185.913 24.9121C185.113 24.0321 184.713 22.8001 184.713 21.2161V13.9201H181.545V11.4481H184.713V7.70414H187.353ZM200.701 17.1841H209.365L208.477 18.4321C208.477 16.8161 208.189 15.5841 207.613 14.7361C207.037 13.8881 206.197 13.4641 205.093 13.4641C203.893 13.4641 202.957 13.9121 202.285 14.8081C201.613 15.6881 201.277 16.9281 201.277 18.5281C201.277 20.2401 201.613 21.5521 202.285 22.4641C202.957 23.3761 203.917 23.8321 205.165 23.8321C205.981 23.8321 206.693 23.6321 207.301 23.2321C207.909 22.8161 208.421 22.2161 208.837 21.4321H211.309C211.069 22.4241 210.661 23.2801 210.085 24.0001C209.525 24.7201 208.821 25.2721 207.973 25.6561C207.141 26.0401 206.205 26.2321 205.165 26.2321C203.821 26.2321 202.661 25.9281 201.685 25.3201C200.725 24.7121 199.989 23.8321 199.477 22.6801C198.965 21.5281 198.709 20.1441 198.709 18.5281C198.709 16.9921 198.965 15.6721 199.477 14.5681C200.005 13.4481 200.749 12.5841 201.709 11.9761C202.669 11.3681 203.797 11.0641 205.093 11.0641C206.325 11.0641 207.373 11.3521 208.237 11.9281C209.101 12.5041 209.765 13.3441 210.229 14.4481C210.693 15.5361 210.925 16.8561 210.925 18.4081C210.925 18.5841 210.917 18.7681 210.901 18.9601C210.901 19.1521 210.893 19.3361 210.877 19.5121H200.701V17.1841Z" fill="#1D1D1D"/>
<path d="M66.3478 43.0161C65.2838 43.0161 64.4838 42.6041 63.9478 41.7801C63.4118 40.9481 63.1438 39.7041 63.1438 38.0481C63.1438 36.3921 63.4198 35.1521 63.9718 34.3281C64.5238 33.4961 65.3518 33.0801 66.4558 33.0801C67.0558 33.0801 67.5678 33.2121 67.9918 33.4761C68.4158 33.7401 68.7518 34.1281 68.9998 34.6401C69.2558 35.1521 69.4118 35.7841 69.4678 36.5361H68.6638C68.5678 35.6561 68.3358 34.9921 67.9678 34.5441C67.5998 34.0961 67.0958 33.8721 66.4558 33.8721C65.6318 33.8721 65.0158 34.2161 64.6078 34.9041C64.1998 35.5921 63.9958 36.6401 63.9958 38.0481C63.9958 39.4561 64.1878 40.5041 64.5718 41.1921C64.9638 41.8801 65.5558 42.2241 66.3478 42.2241C66.9638 42.2241 67.4518 42.0201 67.8118 41.6121C68.1718 41.1961 68.3998 40.5801 68.4958 39.7641H69.2998C69.2358 40.4681 69.0798 41.0641 68.8318 41.5521C68.5918 42.0321 68.2598 42.3961 67.8358 42.6441C67.4198 42.8921 66.9238 43.0161 66.3478 43.0161ZM72.3021 38.8161H76.9461L76.6701 39.0801C76.6701 38.1841 76.4981 37.5001 76.1541 37.0281C75.8181 36.5481 75.3261 36.3081 74.6781 36.3081C73.9981 36.3081 73.4701 36.5641 73.0941 37.0761C72.7181 37.5881 72.5301 38.3041 72.5301 39.2241C72.5301 40.2161 72.7181 40.9721 73.0941 41.4921C73.4781 42.0121 74.0301 42.2721 74.7501 42.2721C75.2541 42.2721 75.6821 42.1321 76.0341 41.8521C76.3941 41.5721 76.6621 41.1681 76.8381 40.6401H77.6061C77.4861 41.1441 77.2941 41.5721 77.0301 41.9241C76.7661 42.2761 76.4421 42.5481 76.0581 42.7401C75.6741 42.9241 75.2381 43.0161 74.7501 43.0161C74.1021 43.0161 73.5501 42.8681 73.0941 42.5721C72.6461 42.2761 72.3021 41.8481 72.0621 41.2881C71.8301 40.7281 71.7141 40.0401 71.7141 39.2241C71.7141 38.4641 71.8341 37.8121 72.0741 37.2681C72.3141 36.7161 72.6541 36.2961 73.0941 36.0081C73.5421 35.7201 74.0701 35.5761 74.6781 35.5761C75.2701 35.5761 75.7701 35.7121 76.1781 35.9841C76.5861 36.2481 76.8941 36.6401 77.1021 37.1601C77.3181 37.6801 77.4261 38.3161 77.4261 39.0681C77.4261 39.1481 77.4221 39.2281 77.4141 39.3081C77.4141 39.3881 77.4101 39.4641 77.4021 39.5361H72.3021V38.8161ZM80.2845 45.2481V35.7321H81.1005V36.5721H81.3885C81.5725 36.2601 81.8365 36.0161 82.1805 35.8401C82.5325 35.6641 82.9245 35.5761 83.3565 35.5761C83.9565 35.5761 84.4685 35.7241 84.8925 36.0201C85.3245 36.3161 85.6525 36.7441 85.8765 37.3041C86.1085 37.8561 86.2245 38.5201 86.2245 39.2961C86.2245 40.0721 86.1085 40.7361 85.8765 41.2881C85.6525 41.8401 85.3245 42.2681 84.8925 42.5721C84.4685 42.8681 83.9565 43.0161 83.3565 43.0161C82.9245 43.0161 82.5325 42.9281 82.1805 42.7521C81.8365 42.5681 81.5725 42.3201 81.3885 42.0081H81.1005V45.2481H80.2845ZM83.2365 42.2601C83.9245 42.2601 84.4565 42.0001 84.8325 41.4801C85.2165 40.9521 85.4085 40.2201 85.4085 39.2841C85.4085 38.3561 85.2165 37.6321 84.8325 37.1121C84.4565 36.5921 83.9245 36.3321 83.2365 36.3321C82.5485 36.3321 82.0125 36.5921 81.6285 37.1121C81.2445 37.6321 81.0525 38.3601 81.0525 39.2961C81.0525 40.2241 81.2445 40.9521 81.6285 41.4801C82.0125 42.0001 82.5485 42.2601 83.2365 42.2601ZM88.9988 42.8481V35.7321H91.7828C92.5188 35.7321 93.0868 35.9001 93.4868 36.2361C93.8868 36.5721 94.0868 37.0481 94.0868 37.6641C94.0868 38.0241 93.9948 38.3361 93.8108 38.6001C93.6268 38.8561 93.3748 39.0361 93.0548 39.1401V39.2721C93.4148 39.3921 93.6948 39.5961 93.8948 39.8841C94.0948 40.1721 94.1948 40.5161 94.1948 40.9161C94.1948 41.5241 93.9908 42.0001 93.5828 42.3441C93.1828 42.6801 92.6148 42.8481 91.8788 42.8481H88.9988ZM89.8148 42.1041H91.8788C92.3588 42.1041 92.7268 41.9961 92.9828 41.7801C93.2468 41.5641 93.3788 41.2601 93.3788 40.8681C93.3788 40.4681 93.2468 40.1601 92.9828 39.9441C92.7268 39.7281 92.3588 39.6201 91.8788 39.6201H89.8148V42.1041ZM89.8148 38.9241H91.7948C92.2668 38.9241 92.6348 38.8201 92.8988 38.6121C93.1628 38.3961 93.2948 38.0921 93.2948 37.7001C93.2948 37.3161 93.1628 37.0161 92.8988 36.8001C92.6348 36.5841 92.2668 36.4761 91.7948 36.4761H89.8148V38.9241ZM97.0531 42.8481V35.7321H97.8571V40.4001L97.8451 42.2721H97.9531L101.097 35.7321H102.501V42.8481H101.697V38.0961L101.709 36.3081H101.601L98.4571 42.8481H97.0531ZM108.311 43.0161C107.671 43.0161 107.127 42.8721 106.679 42.5841C106.231 42.2881 105.887 41.8641 105.647 41.3121C105.407 40.7601 105.287 40.0961 105.287 39.3201C105.287 38.5281 105.407 37.8561 105.647 37.3041C105.895 36.7441 106.251 36.3161 106.715 36.0201C107.187 35.7241 107.751 35.5761 108.407 35.5761C108.959 35.5761 109.439 35.6921 109.847 35.9241C110.255 36.1481 110.579 36.4721 110.819 36.8961C111.059 37.3201 111.199 37.8321 111.239 38.4321H110.471C110.391 37.7601 110.167 37.2441 109.799 36.8841C109.439 36.5161 108.967 36.3321 108.383 36.3321C107.655 36.3321 107.091 36.5921 106.691 37.1121C106.299 37.6241 106.103 38.3601 106.103 39.3201C106.103 40.2641 106.291 40.9921 106.667 41.5041C107.051 42.0081 107.599 42.2601 108.311 42.2601C108.855 42.2601 109.299 42.0961 109.643 41.7681C109.995 41.4401 110.223 40.9721 110.327 40.3641H111.095C111.039 40.9161 110.887 41.3921 110.639 41.7921C110.399 42.1841 110.079 42.4881 109.679 42.7041C109.287 42.9121 108.831 43.0161 108.311 43.0161ZM122.44 42.8481V35.7321H127.528V42.8481H126.712V36.4881H123.256V42.8481H122.44ZM133.387 43.0161C132.755 43.0161 132.211 42.8681 131.755 42.5721C131.299 42.2681 130.947 41.8401 130.699 41.2881C130.459 40.7361 130.339 40.0721 130.339 39.2961C130.339 38.5201 130.459 37.8561 130.699 37.3041C130.947 36.7441 131.299 36.3161 131.755 36.0201C132.211 35.7241 132.755 35.5761 133.387 35.5761C134.019 35.5761 134.563 35.7241 135.019 36.0201C135.475 36.3161 135.823 36.7441 136.063 37.3041C136.311 37.8561 136.435 38.5201 136.435 39.2961C136.435 40.0721 136.311 40.7361 136.063 41.2881C135.823 41.8401 135.475 42.2681 135.019 42.5721C134.563 42.8681 134.019 43.0161 133.387 43.0161ZM133.387 42.2601C134.091 42.2601 134.639 42.0001 135.031 41.4801C135.423 40.9521 135.619 40.2241 135.619 39.2961C135.619 38.3601 135.423 37.6321 135.031 37.1121C134.639 36.5921 134.091 36.3321 133.387 36.3321C132.683 36.3321 132.135 36.5921 131.743 37.1121C131.351 37.6321 131.155 38.3601 131.155 39.2961C131.155 40.2241 131.351 40.9521 131.743 41.4801C132.135 42.0001 132.683 42.2601 133.387 42.2601ZM139.065 42.8481V35.7321H139.869V40.4001L139.857 42.2721H139.965L143.109 35.7321H144.513V42.8481H143.709V38.0961L143.721 36.3081H143.613L140.469 42.8481H139.065ZM150.323 43.0161C149.683 43.0161 149.139 42.8721 148.691 42.5841C148.243 42.2881 147.899 41.8641 147.659 41.3121C147.419 40.7601 147.299 40.0961 147.299 39.3201C147.299 38.5281 147.419 37.8561 147.659 37.3041C147.907 36.7441 148.263 36.3161 148.727 36.0201C149.199 35.7241 149.763 35.5761 150.419 35.5761C150.971 35.5761 151.451 35.6921 151.859 35.9241C152.267 36.1481 152.591 36.4721 152.831 36.8961C153.071 37.3201 153.211 37.8321 153.251 38.4321H152.483C152.403 37.7601 152.179 37.2441 151.811 36.8841C151.451 36.5161 150.979 36.3321 150.395 36.3321C149.667 36.3321 149.103 36.5921 148.703 37.1121C148.311 37.6241 148.115 38.3601 148.115 39.3201C148.115 40.2641 148.303 40.9921 148.679 41.5041C149.063 42.0081 149.611 42.2601 150.323 42.2601C150.867 42.2601 151.311 42.0961 151.655 41.7681C152.007 41.4401 152.235 40.9721 152.339 40.3641H153.107C153.051 40.9161 152.899 41.3921 152.651 41.7921C152.411 42.1841 152.091 42.4881 151.691 42.7041C151.299 42.9121 150.843 43.0161 150.323 43.0161ZM160.55 42.8481L157.046 39.3561L160.646 35.7321H161.702L158.126 39.3321L161.666 42.8481H160.55ZM156.482 42.8481V35.7321H157.298V42.8481H156.482ZM168.832 38.5761V39.3201L166.456 39.6801C166.008 39.7521 165.672 39.9041 165.448 40.1361C165.224 40.3681 165.112 40.6681 165.112 41.0361C165.112 41.4041 165.24 41.7001 165.496 41.9241C165.76 42.1481 166.112 42.2601 166.552 42.2601C166.968 42.2601 167.336 42.1681 167.656 41.9841C167.984 41.8001 168.24 41.5481 168.424 41.2281C168.608 40.9001 168.7 40.5241 168.7 40.1001V38.0961C168.7 37.5361 168.54 37.1001 168.22 36.7881C167.908 36.4761 167.464 36.3201 166.888 36.3201C166.488 36.3201 166.132 36.3961 165.82 36.5481C165.508 36.6921 165.256 36.9001 165.064 37.1721C164.88 37.4361 164.764 37.7561 164.716 38.1321H163.936C163.976 37.6041 164.124 37.1481 164.38 36.7641C164.644 36.3801 164.988 36.0881 165.412 35.8881C165.844 35.6801 166.34 35.5761 166.9 35.5761C167.732 35.5761 168.372 35.7881 168.82 36.2121C169.276 36.6361 169.504 37.2401 169.504 38.0241V42.8481H168.7V42.0921H168.412C168.22 42.3801 167.948 42.6041 167.596 42.7641C167.252 42.9241 166.852 43.0041 166.396 43.0041C165.956 43.0041 165.576 42.9241 165.256 42.7641C164.936 42.6041 164.688 42.3801 164.512 42.0921C164.344 41.7961 164.26 41.4521 164.26 41.0601C164.26 40.4921 164.436 40.0281 164.788 39.6681C165.14 39.3081 165.636 39.0761 166.276 38.9721L168.832 38.5761ZM63.6238 56.8481V49.7321H68.7118V56.8481H67.8958V50.4881H64.4398V56.8481H63.6238ZM71.8461 56.8481V49.7321H72.6501V54.4001L72.6381 56.2721H72.7461L75.8901 49.7321H77.2941V56.8481H76.4901V52.0961L76.5021 50.3081H76.3941L73.2501 56.8481H71.8461ZM82.5645 56.8481V50.4881H80.1765V49.7321H85.7685V50.4881H83.3805V56.8481H82.5645ZM91.3748 57.0161C90.7428 57.0161 90.1988 56.8681 89.7428 56.5721C89.2868 56.2681 88.9348 55.8401 88.6868 55.2881C88.4468 54.7361 88.3268 54.0721 88.3268 53.2961C88.3268 52.5201 88.4468 51.8561 88.6868 51.3041C88.9348 50.7441 89.2868 50.3161 89.7428 50.0201C90.1988 49.7241 90.7428 49.5761 91.3748 49.5761C92.0068 49.5761 92.5508 49.7241 93.0068 50.0201C93.4628 50.3161 93.8108 50.7441 94.0508 51.3041C94.2988 51.8561 94.4228 52.5201 94.4228 53.2961C94.4228 54.0721 94.2988 54.7361 94.0508 55.2881C93.8108 55.8401 93.4628 56.2681 93.0068 56.5721C92.5508 56.8681 92.0068 57.0161 91.3748 57.0161ZM91.3748 56.2601C92.0788 56.2601 92.6268 56.0001 93.0188 55.4801C93.4108 54.9521 93.6068 54.2241 93.6068 53.2961C93.6068 52.3601 93.4108 51.6321 93.0188 51.1121C92.6268 50.5921 92.0788 50.3321 91.3748 50.3321C90.6708 50.3321 90.1228 50.5921 89.7308 51.1121C89.3388 51.6321 89.1428 52.3601 89.1428 53.2961C89.1428 54.2241 89.3388 54.9521 89.7308 55.4801C90.1228 56.0001 90.6708 56.2601 91.3748 56.2601ZM96.7771 56.8481V49.7321H98.1931L99.7531 54.9881H99.8491L101.409 49.7321H102.777V56.8481H101.997V52.7801L102.021 50.3441H101.901L100.377 55.4681H99.1771L97.6531 50.3441H97.5331L97.5571 52.7801V56.8481H96.7771ZM110.795 58.6481V56.8481H105.575V49.7321H106.391V56.0921H109.859V49.7321H110.675V56.0921H111.551V58.6481H110.795ZM114.314 52.8161H118.958L118.682 53.0801C118.682 52.1841 118.51 51.5001 118.166 51.0281C117.83 50.5481 117.338 50.3081 116.69 50.3081C116.01 50.3081 115.482 50.5641 115.106 51.0761C114.73 51.5881 114.542 52.3041 114.542 53.2241C114.542 54.2161 114.73 54.9721 115.106 55.4921C115.49 56.0121 116.042 56.2721 116.762 56.2721C117.266 56.2721 117.694 56.1321 118.046 55.8521C118.406 55.5721 118.674 55.1681 118.85 54.6401H119.618C119.498 55.1441 119.306 55.5721 119.042 55.9241C118.778 56.2761 118.454 56.5481 118.07 56.7401C117.686 56.9241 117.25 57.0161 116.762 57.0161C116.114 57.0161 115.562 56.8681 115.106 56.5721C114.658 56.2761 114.314 55.8481 114.074 55.2881C113.842 54.7281 113.726 54.0401 113.726 53.2241C113.726 52.4641 113.846 51.8121 114.086 51.2681C114.326 50.7161 114.666 50.2961 115.106 50.0081C115.554 49.7201 116.082 49.5761 116.69 49.5761C117.282 49.5761 117.782 49.7121 118.19 49.9841C118.598 50.2481 118.906 50.6401 119.114 51.1601C119.33 51.6801 119.438 52.3161 119.438 53.0681C119.438 53.1481 119.434 53.2281 119.426 53.3081C119.426 53.3881 119.422 53.4641 119.414 53.5361H114.314V52.8161ZM122.608 56.8481V49.7321H125.392C126.128 49.7321 126.696 49.9001 127.096 50.2361C127.496 50.5721 127.696 51.0481 127.696 51.6641C127.696 52.0241 127.604 52.3361 127.42 52.6001C127.236 52.8561 126.984 53.0361 126.664 53.1401V53.2721C127.024 53.3921 127.304 53.5961 127.504 53.8841C127.704 54.1721 127.804 54.5161 127.804 54.9161C127.804 55.5241 127.6 56.0001 127.192 56.3441C126.792 56.6801 126.224 56.8481 125.488 56.8481H122.608ZM123.424 56.1041H125.488C125.968 56.1041 126.336 55.9961 126.592 55.7801C126.856 55.5641 126.988 55.2601 126.988 54.8681C126.988 54.4681 126.856 54.1601 126.592 53.9441C126.336 53.7281 125.968 53.6201 125.488 53.6201H123.424V56.1041ZM123.424 52.9241H125.404C125.876 52.9241 126.244 52.8201 126.508 52.6121C126.772 52.3961 126.904 52.0921 126.904 51.7001C126.904 51.3161 126.772 51.0161 126.508 50.8001C126.244 50.5841 125.876 50.4761 125.404 50.4761H123.424V52.9241Z" fill="#B4B4B4"/>
</svg>
