<svg width="272" height="60" viewBox="0 0 272 60" fill="none" xmlns="http://www.w3.org/2000/svg">
<path d="M21.3413 18.6052C27.8189 12.1504 38.2927 12.1599 44.7476 18.6511C51.2022 25.1424 51.2022 35.6539 44.7476 42.1453L41.3218 45.5906L35.5562 39.8318L38.9917 36.3787C42.2775 33.0741 42.2775 27.7223 38.9917 24.4177C35.7107 21.1182 30.3745 21.108 27.0718 24.3992C23.7459 27.7138 23.7351 33.1126 27.0425 36.4324L32.9956 42.408L33.0044 42.3992L38.77 48.157L38.7466 48.1804L40.2437 49.6833C42.3403 51.7882 42.3404 55.1919 40.2437 57.2966L38.2856 59.2625L21.2905 42.2048C14.7922 35.6821 14.8264 25.0977 21.3413 18.6052Z" fill="#53D548"/>
<path d="M2.87782 9.06193C4.34862 8.98605 5.60245 10.1169 5.67833 11.5877C5.7542 13.0585 4.62339 14.3123 3.15258 14.3882C1.68178 14.4641 0.427951 13.3332 0.352077 11.8624C0.276203 10.3916 1.40702 9.1378 2.87782 9.06193ZM21.7931 21.3198L21.3705 21.5871C20.0738 19.5367 17.5891 16.5945 14.3772 14.4668C11.1687 12.3412 7.28794 11.0604 3.14867 12.2069L3.0152 11.7251L2.88174 11.2432C7.39464 9.99319 11.5757 11.4113 14.9295 13.6331C18.28 15.8527 20.8582 18.9062 22.2157 21.0526L21.7931 21.3198Z" fill="#53D548"/>
<path d="M24.7963 1.30795C25.6469 2.51029 25.3617 4.17447 24.1593 5.02499C22.957 5.87552 21.2928 5.59032 20.4423 4.38797C19.5918 3.18563 19.877 1.52145 21.0793 0.670928C22.2816 -0.179598 23.9458 0.105604 24.7963 1.30795ZM25.3871 18.596L24.918 18.4232C25.4841 16.8864 26.0382 14.2544 25.8345 11.4113C25.6311 8.57368 24.6767 5.56399 22.2694 3.20509L22.6193 2.84796L22.9692 2.49083C25.599 5.0676 26.6166 8.33553 26.8319 11.3398C27.0468 14.3387 26.4664 17.1128 25.8563 18.7688L25.3871 18.596Z" fill="#53D548"/>
<path d="M62.7086 33.5V14.3H69.2846C70.5006 14.3 71.5566 14.532 72.4526 14.996C73.3486 15.46 74.0446 16.116 74.5406 16.964C75.0366 17.796 75.2846 18.788 75.2846 19.94C75.2846 21.092 75.0366 22.092 74.5406 22.94C74.0446 23.772 73.3486 24.42 72.4526 24.884C71.5566 25.332 70.5006 25.556 69.2846 25.556H65.4446V33.5H62.7086ZM65.4446 23.108H69.3806C70.3566 23.108 71.1246 22.828 71.6846 22.268C72.2606 21.708 72.5486 20.948 72.5486 19.988C72.5486 19.028 72.2606 18.268 71.6846 17.708C71.1246 17.148 70.3566 16.868 69.3806 16.868H65.4446V23.108ZM80.6893 24.836H89.3533L88.4653 26.084C88.4653 24.468 88.1773 23.236 87.6013 22.388C87.0253 21.54 86.1853 21.116 85.0813 21.116C83.8813 21.116 82.9453 21.564 82.2733 22.46C81.6013 23.34 81.2653 24.58 81.2653 26.18C81.2653 27.892 81.6013 29.204 82.2733 30.116C82.9453 31.028 83.9053 31.484 85.1533 31.484C85.9693 31.484 86.6813 31.284 87.2893 30.884C87.8973 30.468 88.4093 29.868 88.8253 29.084H91.2973C91.0573 30.076 90.6493 30.932 90.0733 31.652C89.5133 32.372 88.8093 32.924 87.9613 33.308C87.1293 33.692 86.1933 33.884 85.1533 33.884C83.8093 33.884 82.6493 33.58 81.6733 32.972C80.7133 32.364 79.9773 31.484 79.4653 30.332C78.9533 29.18 78.6973 27.796 78.6973 26.18C78.6973 24.644 78.9533 23.324 79.4653 22.22C79.9933 21.1 80.7373 20.236 81.6973 19.628C82.6573 19.02 83.7853 18.716 85.0813 18.716C86.3133 18.716 87.3613 19.004 88.2253 19.58C89.0893 20.156 89.7533 20.996 90.2173 22.1C90.6813 23.188 90.9133 24.508 90.9133 26.06C90.9133 26.236 90.9053 26.42 90.8893 26.612C90.8893 26.804 90.8813 26.988 90.8653 27.164H80.6893V24.836ZM100.95 15.356V19.1H107.43V21.572H100.95V28.772C100.95 29.62 101.126 30.276 101.478 30.74C101.83 31.188 102.342 31.412 103.014 31.412C103.718 31.412 104.262 31.172 104.646 30.692C105.046 30.196 105.342 29.452 105.534 28.46H107.862C107.782 30.22 107.318 31.564 106.47 32.492C105.622 33.42 104.438 33.884 102.918 33.884C101.446 33.884 100.31 33.444 99.51 32.564C98.71 31.684 98.31 30.452 98.31 28.868V21.572H95.142V19.1H98.31V15.356H100.95ZM114.323 33.5V14.3H117.059V30.932H125.195V33.5H114.323ZM135.207 33.884C133.879 33.884 132.727 33.58 131.751 32.972C130.775 32.348 130.015 31.468 129.471 30.332C128.943 29.196 128.679 27.852 128.679 26.3C128.679 24.748 128.943 23.404 129.471 22.268C130.015 21.132 130.775 20.26 131.751 19.652C132.727 19.028 133.879 18.716 135.207 18.716C136.551 18.716 137.703 19.028 138.663 19.652C139.639 20.26 140.391 21.132 140.919 22.268C141.463 23.404 141.735 24.748 141.735 26.3C141.735 27.852 141.463 29.196 140.919 30.332C140.391 31.468 139.639 32.348 138.663 32.972C137.703 33.58 136.551 33.884 135.207 33.884ZM135.207 31.412C136.439 31.412 137.399 30.964 138.087 30.068C138.775 29.172 139.119 27.916 139.119 26.3C139.119 24.684 138.775 23.428 138.087 22.532C137.399 21.636 136.439 21.188 135.207 21.188C133.975 21.188 133.015 21.636 132.327 22.532C131.639 23.428 131.295 24.684 131.295 26.3C131.295 27.916 131.639 29.172 132.327 30.068C133.015 30.964 133.975 31.412 135.207 31.412ZM152.348 33.884C151.036 33.884 149.9 33.58 148.94 32.972C147.98 32.364 147.236 31.5 146.708 30.38C146.18 29.244 145.916 27.908 145.916 26.372C145.916 24.804 146.188 23.452 146.732 22.316C147.276 21.164 148.044 20.276 149.036 19.652C150.044 19.028 151.228 18.716 152.588 18.716C153.772 18.716 154.812 18.964 155.708 19.46C156.604 19.94 157.308 20.628 157.82 21.524C158.332 22.404 158.612 23.452 158.66 24.668H156.236C156.028 23.564 155.596 22.708 154.94 22.1C154.3 21.492 153.484 21.188 152.492 21.188C151.228 21.188 150.252 21.644 149.564 22.556C148.876 23.468 148.532 24.74 148.532 26.372C148.532 27.956 148.868 29.196 149.54 30.092C150.212 30.972 151.148 31.412 152.348 31.412C153.244 31.412 153.996 31.148 154.604 30.62C155.228 30.076 155.66 29.324 155.9 28.364H158.324C158.244 29.484 157.94 30.46 157.412 31.292C156.884 32.108 156.18 32.748 155.3 33.212C154.436 33.66 153.452 33.884 152.348 33.884ZM172.081 24.5V26.828L167.761 27.5C167.089 27.612 166.585 27.844 166.249 28.196C165.929 28.548 165.769 29.012 165.769 29.588C165.769 30.132 165.969 30.572 166.369 30.908C166.785 31.244 167.313 31.412 167.953 31.412C168.657 31.412 169.297 31.244 169.873 30.908C170.465 30.572 170.937 30.124 171.289 29.564C171.641 28.988 171.817 28.356 171.817 27.668V24.14C171.817 23.212 171.537 22.484 170.977 21.956C170.417 21.428 169.649 21.164 168.673 21.164C167.985 21.164 167.369 21.276 166.825 21.5C166.281 21.724 165.833 22.052 165.481 22.484C165.145 22.916 164.913 23.444 164.785 24.068H162.265C162.345 22.964 162.657 22.012 163.201 21.212C163.761 20.412 164.513 19.796 165.457 19.364C166.401 18.932 167.497 18.716 168.745 18.716C170.537 18.716 171.921 19.172 172.897 20.084C173.889 20.996 174.385 22.292 174.385 23.972V33.5H171.817V32.18H171.097C170.713 32.724 170.209 33.14 169.585 33.428C168.977 33.716 168.225 33.86 167.329 33.86C166.449 33.86 165.681 33.692 165.025 33.356C164.385 33.004 163.881 32.516 163.513 31.892C163.161 31.268 162.985 30.54 162.985 29.708C162.985 28.508 163.369 27.524 164.137 26.756C164.905 25.972 166.001 25.468 167.425 25.244L172.081 24.5ZM184.973 15.356V19.1H191.453V21.572H184.973V28.772C184.973 29.62 185.149 30.276 185.501 30.74C185.853 31.188 186.365 31.412 187.037 31.412C187.741 31.412 188.285 31.172 188.669 30.692C189.069 30.196 189.365 29.452 189.557 28.46H191.885C191.805 30.22 191.341 31.564 190.493 32.492C189.645 33.42 188.461 33.884 186.941 33.884C185.469 33.884 184.333 33.444 183.533 32.564C182.733 31.684 182.333 30.452 182.333 28.868V21.572H179.165V19.1H182.333V15.356H184.973ZM198.322 24.836H206.986L206.098 26.084C206.098 24.468 205.81 23.236 205.234 22.388C204.658 21.54 203.818 21.116 202.714 21.116C201.514 21.116 200.578 21.564 199.906 22.46C199.234 23.34 198.898 24.58 198.898 26.18C198.898 27.892 199.234 29.204 199.906 30.116C200.578 31.028 201.538 31.484 202.786 31.484C203.602 31.484 204.314 31.284 204.922 30.884C205.53 30.468 206.042 29.868 206.458 29.084H208.93C208.69 30.076 208.282 30.932 207.706 31.652C207.146 32.372 206.442 32.924 205.594 33.308C204.762 33.692 203.826 33.884 202.786 33.884C201.442 33.884 200.282 33.58 199.306 32.972C198.346 32.364 197.61 31.484 197.098 30.332C196.586 29.18 196.33 27.796 196.33 26.18C196.33 24.644 196.586 23.324 197.098 22.22C197.626 21.1 198.37 20.236 199.33 19.628C200.29 19.02 201.418 18.716 202.714 18.716C203.946 18.716 204.994 19.004 205.858 19.58C206.722 20.156 207.386 20.996 207.85 22.1C208.314 23.188 208.546 24.508 208.546 26.06C208.546 26.236 208.538 26.42 208.522 26.612C208.522 26.804 208.514 26.988 208.498 27.164H198.322V24.836Z" fill="white"/>
<path d="M63.9686 50.668C62.9046 50.668 62.1046 50.256 61.5686 49.432C61.0326 48.6 60.7646 47.356 60.7646 45.7C60.7646 44.044 61.0406 42.804 61.5926 41.98C62.1446 41.148 62.9726 40.732 64.0766 40.732C64.6766 40.732 65.1886 40.864 65.6126 41.128C66.0366 41.392 66.3726 41.78 66.6206 42.292C66.8766 42.804 67.0326 43.436 67.0886 44.188H66.2846C66.1886 43.308 65.9566 42.644 65.5886 42.196C65.2206 41.748 64.7166 41.524 64.0766 41.524C63.2526 41.524 62.6366 41.868 62.2286 42.556C61.8206 43.244 61.6166 44.292 61.6166 45.7C61.6166 47.108 61.8086 48.156 62.1926 48.844C62.5846 49.532 63.1766 49.876 63.9686 49.876C64.5846 49.876 65.0726 49.672 65.4326 49.264C65.7926 48.848 66.0206 48.232 66.1166 47.416H66.9206C66.8566 48.12 66.7006 48.716 66.4526 49.204C66.2126 49.684 65.8806 50.048 65.4566 50.296C65.0406 50.544 64.5446 50.668 63.9686 50.668ZM69.923 46.468H74.567L74.291 46.732C74.291 45.836 74.119 45.152 73.775 44.68C73.439 44.2 72.947 43.96 72.299 43.96C71.619 43.96 71.091 44.216 70.715 44.728C70.339 45.24 70.151 45.956 70.151 46.876C70.151 47.868 70.339 48.624 70.715 49.144C71.099 49.664 71.651 49.924 72.371 49.924C72.875 49.924 73.303 49.784 73.655 49.504C74.015 49.224 74.283 48.82 74.459 48.292H75.227C75.107 48.796 74.915 49.224 74.651 49.576C74.387 49.928 74.063 50.2 73.679 50.392C73.295 50.576 72.859 50.668 72.371 50.668C71.723 50.668 71.171 50.52 70.715 50.224C70.267 49.928 69.923 49.5 69.683 48.94C69.451 48.38 69.335 47.692 69.335 46.876C69.335 46.116 69.455 45.464 69.695 44.92C69.935 44.368 70.275 43.948 70.715 43.66C71.163 43.372 71.691 43.228 72.299 43.228C72.891 43.228 73.391 43.364 73.799 43.636C74.207 43.9 74.515 44.292 74.723 44.812C74.939 45.332 75.047 45.968 75.047 46.72C75.047 46.8 75.043 46.88 75.035 46.96C75.035 47.04 75.031 47.116 75.023 47.188H69.923V46.468ZM77.9053 52.9V43.384H78.7213V44.224H79.0093C79.1933 43.912 79.4573 43.668 79.8013 43.492C80.1533 43.316 80.5453 43.228 80.9773 43.228C81.5773 43.228 82.0893 43.376 82.5133 43.672C82.9453 43.968 83.2733 44.396 83.4973 44.956C83.7293 45.508 83.8453 46.172 83.8453 46.948C83.8453 47.724 83.7293 48.388 83.4973 48.94C83.2733 49.492 82.9453 49.92 82.5133 50.224C82.0893 50.52 81.5773 50.668 80.9773 50.668C80.5453 50.668 80.1533 50.58 79.8013 50.404C79.4573 50.22 79.1933 49.972 79.0093 49.66H78.7213V52.9H77.9053ZM80.8573 49.912C81.5453 49.912 82.0773 49.652 82.4533 49.132C82.8373 48.604 83.0293 47.872 83.0293 46.936C83.0293 46.008 82.8373 45.284 82.4533 44.764C82.0773 44.244 81.5453 43.984 80.8573 43.984C80.1693 43.984 79.6333 44.244 79.2493 44.764C78.8653 45.284 78.6733 46.012 78.6733 46.948C78.6733 47.876 78.8653 48.604 79.2493 49.132C79.6333 49.652 80.1693 49.912 80.8573 49.912ZM86.6197 50.5V43.384H89.4037C90.1397 43.384 90.7077 43.552 91.1077 43.888C91.5077 44.224 91.7077 44.7 91.7077 45.316C91.7077 45.676 91.6157 45.988 91.4317 46.252C91.2477 46.508 90.9957 46.688 90.6757 46.792V46.924C91.0357 47.044 91.3157 47.248 91.5157 47.536C91.7157 47.824 91.8157 48.168 91.8157 48.568C91.8157 49.176 91.6117 49.652 91.2037 49.996C90.8037 50.332 90.2357 50.5 89.4997 50.5H86.6197ZM87.4357 49.756H89.4997C89.9797 49.756 90.3477 49.648 90.6037 49.432C90.8677 49.216 90.9997 48.912 90.9997 48.52C90.9997 48.12 90.8677 47.812 90.6037 47.596C90.3477 47.38 89.9797 47.272 89.4997 47.272H87.4357V49.756ZM87.4357 46.576H89.4157C89.8877 46.576 90.2557 46.472 90.5197 46.264C90.7837 46.048 90.9157 45.744 90.9157 45.352C90.9157 44.968 90.7837 44.668 90.5197 44.452C90.2557 44.236 89.8877 44.128 89.4157 44.128H87.4357V46.576ZM94.674 50.5V43.384H95.478V48.052L95.466 49.924H95.574L98.718 43.384H100.122V50.5H99.318V45.748L99.33 43.96H99.222L96.078 50.5H94.674ZM105.932 50.668C105.292 50.668 104.748 50.524 104.3 50.236C103.852 49.94 103.508 49.516 103.268 48.964C103.028 48.412 102.908 47.748 102.908 46.972C102.908 46.18 103.028 45.508 103.268 44.956C103.516 44.396 103.872 43.968 104.336 43.672C104.808 43.376 105.372 43.228 106.028 43.228C106.58 43.228 107.06 43.344 107.468 43.576C107.876 43.8 108.2 44.124 108.44 44.548C108.68 44.972 108.82 45.484 108.86 46.084H108.092C108.012 45.412 107.788 44.896 107.42 44.536C107.06 44.168 106.588 43.984 106.004 43.984C105.276 43.984 104.712 44.244 104.312 44.764C103.92 45.276 103.724 46.012 103.724 46.972C103.724 47.916 103.912 48.644 104.288 49.156C104.672 49.66 105.22 49.912 105.932 49.912C106.476 49.912 106.92 49.748 107.264 49.42C107.616 49.092 107.844 48.624 107.948 48.016H108.716C108.66 48.568 108.508 49.044 108.26 49.444C108.02 49.836 107.7 50.14 107.3 50.356C106.908 50.564 106.452 50.668 105.932 50.668ZM120.061 50.5V43.384H125.149V50.5H124.333V44.14H120.877V50.5H120.061ZM131.007 50.668C130.375 50.668 129.831 50.52 129.375 50.224C128.919 49.92 128.567 49.492 128.319 48.94C128.079 48.388 127.959 47.724 127.959 46.948C127.959 46.172 128.079 45.508 128.319 44.956C128.567 44.396 128.919 43.968 129.375 43.672C129.831 43.376 130.375 43.228 131.007 43.228C131.639 43.228 132.183 43.376 132.639 43.672C133.095 43.968 133.443 44.396 133.683 44.956C133.931 45.508 134.055 46.172 134.055 46.948C134.055 47.724 133.931 48.388 133.683 48.94C133.443 49.492 133.095 49.92 132.639 50.224C132.183 50.52 131.639 50.668 131.007 50.668ZM131.007 49.912C131.711 49.912 132.259 49.652 132.651 49.132C133.043 48.604 133.239 47.876 133.239 46.948C133.239 46.012 133.043 45.284 132.651 44.764C132.259 44.244 131.711 43.984 131.007 43.984C130.303 43.984 129.755 44.244 129.363 44.764C128.971 45.284 128.775 46.012 128.775 46.948C128.775 47.876 128.971 48.604 129.363 49.132C129.755 49.652 130.303 49.912 131.007 49.912ZM136.686 50.5V43.384H137.49V48.052L137.478 49.924H137.586L140.73 43.384H142.134V50.5H141.33V45.748L141.342 43.96H141.234L138.09 50.5H136.686ZM147.944 50.668C147.304 50.668 146.76 50.524 146.312 50.236C145.864 49.94 145.52 49.516 145.28 48.964C145.04 48.412 144.92 47.748 144.92 46.972C144.92 46.18 145.04 45.508 145.28 44.956C145.528 44.396 145.884 43.968 146.348 43.672C146.82 43.376 147.384 43.228 148.04 43.228C148.592 43.228 149.072 43.344 149.48 43.576C149.888 43.8 150.212 44.124 150.452 44.548C150.692 44.972 150.832 45.484 150.872 46.084H150.104C150.024 45.412 149.8 44.896 149.432 44.536C149.072 44.168 148.6 43.984 148.016 43.984C147.288 43.984 146.724 44.244 146.324 44.764C145.932 45.276 145.736 46.012 145.736 46.972C145.736 47.916 145.924 48.644 146.3 49.156C146.684 49.66 147.232 49.912 147.944 49.912C148.488 49.912 148.932 49.748 149.276 49.42C149.628 49.092 149.856 48.624 149.96 48.016H150.728C150.672 48.568 150.52 49.044 150.272 49.444C150.032 49.836 149.712 50.14 149.312 50.356C148.92 50.564 148.464 50.668 147.944 50.668ZM158.17 50.5L154.666 47.008L158.266 43.384H159.322L155.746 46.984L159.286 50.5H158.17ZM154.102 50.5V43.384H154.918V50.5H154.102ZM166.453 46.228V46.972L164.077 47.332C163.629 47.404 163.293 47.556 163.069 47.788C162.845 48.02 162.733 48.32 162.733 48.688C162.733 49.056 162.861 49.352 163.117 49.576C163.381 49.8 163.733 49.912 164.173 49.912C164.589 49.912 164.957 49.82 165.277 49.636C165.605 49.452 165.861 49.2 166.045 48.88C166.229 48.552 166.321 48.176 166.321 47.752V45.748C166.321 45.188 166.161 44.752 165.841 44.44C165.529 44.128 165.085 43.972 164.509 43.972C164.109 43.972 163.753 44.048 163.441 44.2C163.129 44.344 162.877 44.552 162.685 44.824C162.501 45.088 162.385 45.408 162.337 45.784H161.557C161.597 45.256 161.745 44.8 162.001 44.416C162.265 44.032 162.609 43.74 163.033 43.54C163.465 43.332 163.961 43.228 164.521 43.228C165.353 43.228 165.993 43.44 166.441 43.864C166.897 44.288 167.125 44.892 167.125 45.676V50.5H166.321V49.744H166.033C165.841 50.032 165.569 50.256 165.217 50.416C164.873 50.576 164.473 50.656 164.017 50.656C163.577 50.656 163.197 50.576 162.877 50.416C162.557 50.256 162.309 50.032 162.133 49.744C161.965 49.448 161.881 49.104 161.881 48.712C161.881 48.144 162.057 47.68 162.409 47.32C162.761 46.96 163.257 46.728 163.897 46.624L166.453 46.228ZM178.877 50.5V43.384H183.965V50.5H183.149V44.14H179.693V50.5H178.877ZM187.1 50.5V43.384H187.904V48.052L187.892 49.924H188L191.144 43.384H192.548V50.5H191.744V45.748L191.756 43.96H191.648L188.504 50.5H187.1ZM197.818 50.5V44.14H195.43V43.384H201.022V44.14H198.634V50.5H197.818ZM206.628 50.668C205.996 50.668 205.452 50.52 204.996 50.224C204.54 49.92 204.188 49.492 203.94 48.94C203.7 48.388 203.58 47.724 203.58 46.948C203.58 46.172 203.7 45.508 203.94 44.956C204.188 44.396 204.54 43.968 204.996 43.672C205.452 43.376 205.996 43.228 206.628 43.228C207.26 43.228 207.804 43.376 208.26 43.672C208.716 43.968 209.064 44.396 209.304 44.956C209.552 45.508 209.676 46.172 209.676 46.948C209.676 47.724 209.552 48.388 209.304 48.94C209.064 49.492 208.716 49.92 208.26 50.224C207.804 50.52 207.26 50.668 206.628 50.668ZM206.628 49.912C207.332 49.912 207.88 49.652 208.272 49.132C208.664 48.604 208.86 47.876 208.86 46.948C208.86 46.012 208.664 45.284 208.272 44.764C207.88 44.244 207.332 43.984 206.628 43.984C205.924 43.984 205.376 44.244 204.984 44.764C204.592 45.284 204.396 46.012 204.396 46.948C204.396 47.876 204.592 48.604 204.984 49.132C205.376 49.652 205.924 49.912 206.628 49.912ZM212.031 50.5V43.384H213.447L215.007 48.64H215.103L216.663 43.384H218.031V50.5H217.251V46.432L217.275 43.996H217.155L215.631 49.12H214.431L212.907 43.996H212.787L212.811 46.432V50.5H212.031ZM226.049 52.3V50.5H220.829V43.384H221.645V49.744H225.113V43.384H225.929V49.744H226.805V52.3H226.049ZM229.567 46.468H234.211L233.935 46.732C233.935 45.836 233.763 45.152 233.419 44.68C233.083 44.2 232.591 43.96 231.943 43.96C231.263 43.96 230.735 44.216 230.359 44.728C229.983 45.24 229.795 45.956 229.795 46.876C229.795 47.868 229.983 48.624 230.359 49.144C230.743 49.664 231.295 49.924 232.015 49.924C232.519 49.924 232.947 49.784 233.299 49.504C233.659 49.224 233.927 48.82 234.103 48.292H234.871C234.751 48.796 234.559 49.224 234.295 49.576C234.031 49.928 233.707 50.2 233.323 50.392C232.939 50.576 232.503 50.668 232.015 50.668C231.367 50.668 230.815 50.52 230.359 50.224C229.911 49.928 229.567 49.5 229.327 48.94C229.095 48.38 228.979 47.692 228.979 46.876C228.979 46.116 229.099 45.464 229.339 44.92C229.579 44.368 229.919 43.948 230.359 43.66C230.807 43.372 231.335 43.228 231.943 43.228C232.535 43.228 233.035 43.364 233.443 43.636C233.851 43.9 234.159 44.292 234.367 44.812C234.583 45.332 234.691 45.968 234.691 46.72C234.691 46.8 234.687 46.88 234.679 46.96C234.679 47.04 234.675 47.116 234.667 47.188H229.567V46.468ZM237.862 50.5V43.384H240.646C241.382 43.384 241.95 43.552 242.35 43.888C242.75 44.224 242.95 44.7 242.95 45.316C242.95 45.676 242.858 45.988 242.674 46.252C242.49 46.508 242.238 46.688 241.918 46.792V46.924C242.278 47.044 242.558 47.248 242.758 47.536C242.958 47.824 243.058 48.168 243.058 48.568C243.058 49.176 242.854 49.652 242.446 49.996C242.046 50.332 241.478 50.5 240.742 50.5H237.862ZM238.678 49.756H240.742C241.222 49.756 241.59 49.648 241.846 49.432C242.11 49.216 242.242 48.912 242.242 48.52C242.242 48.12 242.11 47.812 241.846 47.596C241.59 47.38 241.222 47.272 240.742 47.272H238.678V49.756ZM238.678 46.576H240.658C241.13 46.576 241.498 46.472 241.762 46.264C242.026 46.048 242.158 45.744 242.158 45.352C242.158 44.968 242.026 44.668 241.762 44.452C241.498 44.236 241.13 44.128 240.658 44.128H238.678V46.576Z" fill="#B4B4B4"/>
</svg>
