<svg width="895" height="964" viewBox="0 0 895 964" fill="none" xmlns="http://www.w3.org/2000/svg">
<path d="M25.0974 656.443C76.71 828.41 251.163 902.72 332.07 918.416C332.16 918.433 332.242 918.462 332.323 918.503C357.018 930.919 369.526 959.5 467.168 959.5C513.961 959.5 551.021 935.345 565.36 920.168C565.964 919.528 567.69 919.691 568.559 919.831C577.834 921.317 628.882 897.583 782.095 789.398C952.519 669.06 884.579 428.096 829.182 322.374C829.087 322.192 829.053 322.003 829.079 321.8C842.108 219.373 855.594 13.1732 805.568 5.35999C755.629 -2.43967 639.287 121.343 586.916 184.721C586.651 185.042 586.249 185.157 585.854 185.023C562.577 177.127 503.428 161.371 447.607 159.821C391.848 158.273 334.044 175.752 311.373 184.957C310.953 185.127 310.505 185.005 310.23 184.645C260.431 119.296 145.787 -7.1154 81.8227 5.35999C17.7673 17.8531 44.5709 227.574 66.0705 331.376C66.1375 331.7 66.0511 332.007 65.8228 332.246C30.5843 369.149 -26.3711 484.958 25.0974 656.443Z" stroke="#53D548" stroke-width="9"/>
</svg>
